<?xml version="1.0" encoding="utf-8"?>
<!-- Generator: Adobe Illustrator 19.0.0, SVG Export Plug-In . SVG Version: 6.00 Build 0)  -->
<svg version="1.1" xmlns="http://www.w3.org/2000/svg" xmlns:xlink="http://www.w3.org/1999/xlink" x="0px" y="0px"
	 viewBox="0 0 850.4 283.5" style="enable-background:new 0 0 850.4 283.5;" xml:space="preserve">
<style type="text/css">
	.st0{fill:#ED1E24;}
	.st1{fill:#FFFFFF;stroke:#2E3192;stroke-miterlimit:10;}
	.st2{font-family:'Roboto-Regular';}
	.st3{font-size:7px;}
	.st4{letter-spacing:20;}
</style>
<g id="Calque_1">
	<rect id="XMLID_1_" x="560" y="84.9" class="st0" width="255.5" height="4.1"/>
	<rect id="XMLID_11_" x="34.2" y="118.9" class="st0" width="58.1" height="3.8"/>
	<rect id="XMLID_9_" x="89.7" y="182" class="st0" width="122.7" height="4.1"/>
	<rect id="XMLID_2_" x="560" y="182" class="st0" width="206.3" height="4.1"/>
	
		<rect id="XMLID_8_" x="502.5" y="95.3" transform="matrix(-0.4275 0.904 -0.904 -0.4275 862.7689 -231.1147)" class="st0" width="4.1" height="124.6"/>
	
		<rect id="XMLID_3_" x="208.6" y="107.1" transform="matrix(-0.9041 -0.4274 0.4274 -0.9041 449.6673 319.1069)" class="st0" width="104.2" height="3.9"/>
	
		<rect id="XMLID_7_" x="444.7" y="107.1" transform="matrix(-0.9291 0.3698 -0.3698 -0.9291 1014.5351 23.7442)" class="st0" width="120.6" height="4.1"/>
	
		<rect id="XMLID_10_" x="204.5" y="155.8" transform="matrix(-0.8736 0.4867 -0.4867 -0.8736 562.4228 169.4419)" class="st0" width="109.4" height="4"/>
	
		<rect id="XMLID_4_" x="86.8" y="101.9" transform="matrix(-0.8736 0.4867 -0.4867 -0.8736 278.9577 135.3102)" class="st0" width="70.2" height="4"/>
	<rect id="XMLID_5_" x="306.9" y="129.5" class="st0" width="143.2" height="3.6"/>
	<rect id="XMLID_6_" x="12.3" y="85.1" class="st0" width="202.1" height="4.1"/>
	<circle id="XMLID_23_" class="st1" cx="71.1" cy="120.8" r="3.6"/>
	<circle id="XMLID_24_" class="st1" cx="89.7" cy="184.1" r="3.6"/>
	<circle id="XMLID_25_" class="st1" cx="104" cy="184.1" r="3.6"/>
	<circle id="XMLID_26_" class="st1" cx="123" cy="184.1" r="3.6"/>
	<circle id="XMLID_27_" class="st1" cx="141.1" cy="184.1" r="3.6"/>
	<circle id="XMLID_28_" class="st1" cx="158.3" cy="184.1" r="3.6"/>
	<circle id="XMLID_29_" class="st1" cx="177.2" cy="184.1" r="3.6"/>
	<circle id="XMLID_30_" class="st1" cx="199.7" cy="184.1" r="3.6"/>
	<circle id="XMLID_31_" class="st1" cx="313.7" cy="131.3" r="3.6"/>
	<circle id="XMLID_32_" class="st1" cx="328.1" cy="131.8" r="3.6"/>
	<circle id="XMLID_33_" class="st1" cx="346.8" cy="131.8" r="3.6"/>
	<circle id="XMLID_34_" class="st1" cx="365.8" cy="131.8" r="3.6"/>
	<circle id="XMLID_35_" class="st1" cx="385.7" cy="131.8" r="3.6"/>
	<circle id="XMLID_36_" class="st1" cx="406.8" cy="131.8" r="3.6"/>
	<circle id="XMLID_37_" class="st1" cx="423.8" cy="131.8" r="3.6"/>
	<circle id="XMLID_38_" class="st1" cx="563.6" cy="87" r="3.6"/>
	<circle id="XMLID_39_" class="st1" cx="597.1" cy="87" r="3.6"/>
	<circle id="XMLID_40_" class="st1" cx="623.6" cy="87" r="3.6"/>
	<circle id="XMLID_41_" class="st1" cx="642" cy="87" r="3.6"/>
	<circle id="XMLID_42_" class="st1" cx="660.1" cy="87" r="3.6"/>
	<circle id="XMLID_43_" class="st1" cx="677.5" cy="87" r="3.6"/>
	<circle id="XMLID_44_" class="st1" cx="695.1" cy="87" r="3.6"/>
	<circle id="XMLID_49_" class="st1" cx="567.3" cy="184.1" r="3.6"/>
	<circle id="XMLID_50_" class="st1" cx="594.9" cy="184.1" r="3.6"/>
	<circle id="XMLID_51_" class="st1" cx="628.1" cy="184.1" r="3.6"/>
	<circle id="XMLID_52_" class="st1" cx="670.3" cy="184.1" r="3.6"/>
	<circle id="XMLID_54_" class="st1" cx="648.2" cy="184.1" r="3.6"/>
	<circle id="XMLID_55_" class="st1" cx="766.3" cy="184.1" r="3.6"/>
	<circle id="XMLID_56_" class="st1" cx="744.5" cy="184.1" r="3.6"/>
	<circle id="XMLID_53_" class="st1" cx="721.2" cy="184.1" r="3.6"/>
	<circle id="XMLID_48_" class="st1" cx="697.9" cy="184.1" r="3.6"/>
	<circle id="XMLID_45_" class="st1" cx="711.2" cy="87" r="3.6"/>
	<circle id="XMLID_46_" class="st1" cx="747" cy="87" r="3.6"/>
	<circle id="XMLID_47_" class="st1" cx="779.6" cy="87" r="3.6"/>
	<circle id="XMLID_14_" class="st1" cx="814.8" cy="87" r="3.6"/>
	<circle id="XMLID_15_" class="st1" cx="12.3" cy="86.7" r="3.6"/>
	<circle id="XMLID_17_" class="st1" cx="34.2" cy="87.1" r="3.6"/>
	<circle id="XMLID_18_" class="st1" cx="74.7" cy="87.1" r="3.6"/>
	<circle id="XMLID_19_" class="st1" cx="102.7" cy="87.1" r="3.6"/>
	<circle id="XMLID_20_" class="st1" cx="124.3" cy="86.7" r="3.6"/>
	<circle id="XMLID_21_" class="st1" cx="162.1" cy="86.7" r="3.6"/>
	<circle id="XMLID_22_" class="st1" cx="184.5" cy="87.1" r="3.6"/>
	<circle id="XMLID_16_" class="st1" cx="205.1" cy="86.7" r="3.6"/>
	<circle id="XMLID_13_" class="st1" cx="52.7" cy="87.1" r="3.6"/>
	<circle id="XMLID_12_" class="st1" cx="36.1" cy="120.8" r="3.6"/>
	<circle id="XMLID_82_" class="st1" cx="441.1" cy="131.8" r="3.6"/>
</g>
<g id="Calque_2">
	<text id="XMLID_132_" transform="matrix(0.6756 -0.7373 0.7373 0.6756 12.3332 75.5284)" class="st2 st3">Cergy le Haut</text>
	<text id="XMLID_131_" transform="matrix(0.6756 -0.7373 0.7373 0.6756 52.7082 75.5284)" class="st2 st3">Cergy Préfecture</text>
	<text id="XMLID_130_" transform="matrix(0.6756 -0.7373 0.7373 0.6756 34.1667 75.5284)" class="st2 st3">Cergy Saint-Christophe</text>
	<text id="XMLID_129_" transform="matrix(0.6756 -0.7373 0.7373 0.6756 74.7187 75.5284)" class="st2 st3">Neuville Université</text>
	<text id="XMLID_128_" transform="matrix(0.6756 -0.7373 0.7373 0.6756 102.7187 75.5284)" class="st2 st3">Conflans Fin d’Oise</text>
	<text id="XMLID_127_" transform="matrix(0.6756 -0.7373 0.7373 0.6756 124.3437 75.5284)" class="st2 st3">Achères Ville</text>
	<text id="XMLID_126_" transform="matrix(0.6756 -0.7373 0.7373 0.6756 23.9687 148.6524)" class="st2 st3">Poissy</text>
	<text id="XMLID_125_" transform="matrix(0.6756 -0.7373 0.7373 0.6756 54.6295 153.0965)"><tspan x="0" y="0" class="st2 st3">Achères</tspan><tspan x="-19.8" y="8.4" class="st2 st3">Grand Cormier</tspan></text>
	<text id="XMLID_124_" transform="matrix(0.6756 -0.7373 0.7373 0.6756 162.094 75.5284)" class="st2 st3">Maisons-Laffite</text>
	<text id="XMLID_123_" transform="matrix(0.6756 -0.7373 0.7373 0.6756 184.469 75.5284)" class="st2 st3">Sartrouville</text>
	<text id="XMLID_122_" transform="matrix(0.6756 -0.7373 0.7373 0.6756 206.3442 70.4454)"><tspan x="0" y="0" class="st2 st3">Houilles</tspan><tspan x="0" y="8.4" class="st2 st3">Carrières sur Seine</tspan></text>
	<text id="XMLID_121_" transform="matrix(0.6756 -0.7373 0.7373 0.6756 89.6584 175.5831)" class="st2 st3">Saint-Germain en Laye</text>
	<text id="XMLID_120_" transform="matrix(0.6756 -0.7373 0.7373 0.6756 103.9919 175.5821)" class="st2 st3">Le Vésinet Le Pecq</text>
	<text id="XMLID_119_" transform="matrix(0.6756 -0.7373 0.7373 0.6756 122.958 175.5821)" class="st2 st3">Le Vésinet Centre</text>
	<text id="XMLID_118_" transform="matrix(0.6756 -0.7373 0.7373 0.6756 141.104 175.5821)" class="st2 st3">Chatou Croissy</text>
	<text id="XMLID_117_" transform="matrix(0.6756 -0.7373 0.7373 0.6756 158.2932 175.5821)"><tspan x="0" y="0" class="st2 st3">Ruel Malmaison</tspan><tspan x="50" y="0" class="st2 st3 st4">	</tspan></text>
	<text id="XMLID_116_" transform="matrix(0.6756 -0.7373 0.7373 0.6756 177.1978 175.5821)" class="st2 st3">Nanterre Ville</text>
	<text id="XMLID_115_" transform="matrix(0.6756 -0.7373 0.7373 0.6756 199.6975 175.5821)" class="st2 st3">Nanterre Université</text>
	<text id="XMLID_114_" transform="matrix(0.6756 -0.7373 0.7373 0.6756 313.6975 122.7003)" class="st2 st3">Nanterre Préfecture</text>
	<text id="XMLID_113_" transform="matrix(0.6756 -0.7373 0.7373 0.6756 328.0725 122.7003)" class="st2 st3">La Défense</text>
	<text id="XMLID_112_" transform="matrix(0.6756 -0.7373 0.7373 0.6756 346.8333 122.7003)" class="st2 st3">Charles de Gaulle Étoile</text>
	<text id="XMLID_111_" transform="matrix(0.6756 -0.7373 0.7373 0.6756 365.762 122.7003)" class="st2 st3">Auber</text>
	<text id="XMLID_110_" transform="matrix(0.6756 -0.7373 0.7373 0.6756 385.7397 122.7003)" class="st2 st3">Châtelet Les Halles</text>
	<text id="XMLID_109_" transform="matrix(0.6756 -0.7373 0.7373 0.6756 406.8435 122.7003)" class="st2 st3">Paris Gare de Lyon</text>
	<text id="XMLID_108_" transform="matrix(0.6756 -0.7373 0.7373 0.6756 423.8435 122.7003)" class="st2 st3">Nation</text>
	<text id="XMLID_107_" transform="matrix(0.6756 -0.7373 0.7373 0.6756 441.0935 122.7003)" class="st2 st3">Vincennes</text>
	<text id="XMLID_106_" transform="matrix(0.6756 -0.7373 0.7373 0.6756 563.636 77.9503)" class="st2 st3">Val de Fontenay</text>
	<text id="XMLID_105_" transform="matrix(0.6756 -0.7373 0.7373 0.6756 597.1147 77.9503)" class="st2 st3">Neuilly Plaisance</text>
	<text id="XMLID_104_" transform="matrix(0.6756 -0.7373 0.7373 0.6756 623.6372 77.9503)" class="st2 st3">Bry sur Marne</text>
	<text id="XMLID_103_" transform="matrix(0.6756 -0.7373 0.7373 0.6756 641.9995 77.9503)" class="st2 st3">Noisy le Grand Mont d’Est</text>
	<text id="XMLID_102_" transform="matrix(0.6756 -0.7373 0.7373 0.6756 660.135 77.9503)" class="st2 st3">Noisy Champs</text>
	<text id="XMLID_101_" transform="matrix(0.6756 -0.7373 0.7373 0.6756 677.5002 77.9503)" class="st2 st3">Noisiel</text>
	<text id="XMLID_100_" transform="matrix(0.6756 -0.7373 0.7373 0.6756 695.1147 77.9503)" class="st2 st3">Lognes</text>
	<text id="XMLID_99_" transform="matrix(0.6756 -0.7373 0.7373 0.6756 711.2283 77.9503)" class="st2 st3">Torcy</text>
	<text id="XMLID_98_" transform="matrix(0.6756 -0.7373 0.7373 0.6756 746.9998 77.9503)" class="st2 st3">Bussy Saint-Georges</text>
	<text id="XMLID_97_" transform="matrix(0.6756 -0.7373 0.7373 0.6756 779.6143 77.9503)" class="st2 st3">Val d’Europe</text>
	<text id="XMLID_96_" transform="matrix(0.6756 -0.7373 0.7373 0.6756 815.5005 77.9503)"><tspan x="0" y="0" class="st2 st3">Marne la Vallée</tspan><tspan x="0" y="8.4" class="st2 st3">Chessy</tspan></text>
	<text id="XMLID_57_" transform="matrix(0.6756 -0.7373 0.7373 0.6756 567.272 176.2833)" class="st2 st3">Fontenay sous Bois</text>
	<text id="XMLID_58_" transform="matrix(0.6756 -0.7373 0.7373 0.6756 594.939 176.2833)" class="st2 st3">Nogent sur Marne</text>
	<text id="XMLID_59_" transform="matrix(0.6756 -0.7373 0.7373 0.6756 628.1045 176.2833)" class="st2 st3">Joinville le Pont</text>
	<text id="XMLID_60_" transform="matrix(0.6756 -0.7373 0.7373 0.6756 648.1667 176.2833)" class="st2 st3">Saint-Maur Créteil</text>
	<text id="XMLID_61_" transform="matrix(0.6756 -0.7373 0.7373 0.6756 670.2715 175.5821)" class="st2 st3">Le Parc de Saint-Maur</text>
	<text id="XMLID_62_" transform="matrix(0.6756 -0.7373 0.7373 0.6756 697.9385 176.2833)" class="st2 st3">Champigny</text>
	<text id="XMLID_63_" transform="matrix(0.6756 -0.7373 0.7373 0.6756 721.1667 175.5831)" class="st2 st3">La Varenne Chennevières</text>
	<text id="XMLID_64_" transform="matrix(0.6756 -0.7373 0.7373 0.6756 744.4998 175.5831)" class="st2 st3">Sucy Bonneuil</text>
	<text id="XMLID_65_" transform="matrix(0.6756 -0.7373 0.7373 0.6756 766.3333 175.5811)" class="st2 st3">Boissy Saint-Léger</text>
</g>
</svg>
